<svg width="133" height="134" viewBox="0 0 133 134" fill="none" xmlns="http://www.w3.org/2000/svg">
<g clip-path="url(#clip0_695_4435)">
<path fill-rule="evenodd" clip-rule="evenodd" d="M107.819 11.4512H26.6218L34.2878 126.084H115.5L107.819 11.4512Z" fill="#A8BFE2"/>
<path fill-rule="evenodd" clip-rule="evenodd" d="M9.30154 11.4512H107.771L98.4691 126.084H0L9.30154 11.4512Z" fill="#D3DFF0"/>
<path fill-rule="evenodd" clip-rule="evenodd" d="M105.509 39.3259H7.04028L9.30165 11.4512H107.771L105.509 39.3259Z" fill="#7CA0D3"/>
<path fill-rule="evenodd" clip-rule="evenodd" d="M38.8744 28.4828C41.5528 28.4828 43.7339 26.2917 43.7339 23.6213C43.7339 20.9505 41.5528 18.7598 38.8744 18.7598C36.18 18.7598 33.9993 20.9509 33.9993 23.6213C33.9993 26.2921 36.1804 28.4828 38.8744 28.4828Z" fill="#FEFFFE"/>
<path fill-rule="evenodd" clip-rule="evenodd" d="M38.4574 0C43.1402 0 46.973 3.82206 46.973 8.49177V11.3544H44.8399V8.95541C44.8399 5.46911 41.9692 2.60649 38.457 2.60649C34.9448 2.60649 32.0903 5.46911 32.0903 8.95541V16.0241C32.0903 19.4786 34.8807 22.3091 38.3288 22.373C39.6438 22.8367 38.9865 24.852 38.3288 24.9799C33.7101 24.8999 29.9575 21.1096 29.9575 16.4881V8.49177C29.9575 3.82206 33.7746 0 38.4574 0Z" fill="#FFBD6F"/>
<path fill-rule="evenodd" clip-rule="evenodd" d="M74.4611 28.4828C77.1394 28.4828 79.3363 26.2917 79.3363 23.6213C79.3363 20.9505 77.139 18.7598 74.4611 18.7598C71.7828 18.7598 69.5859 20.9509 69.5859 23.6213C69.5859 26.2921 71.7828 28.4828 74.4611 28.4828Z" fill="#FEFFFE"/>
<path fill-rule="evenodd" clip-rule="evenodd" d="M74.0603 0C78.727 0 82.5602 3.82206 82.5602 8.49177V11.3544H80.4271V8.95541C80.4271 5.46911 77.5564 2.60649 74.0603 2.60649C70.5481 2.60649 67.6774 5.46911 67.6774 8.95541V16.0241C67.6774 19.4786 70.4678 22.3091 73.9159 22.373C75.247 22.8367 74.5736 24.852 73.9159 24.9799C69.2972 24.8999 65.5447 21.1096 65.5447 16.4881V8.49177C65.5443 3.82206 69.3775 0 74.0603 0Z" fill="#FFBD6F"/>
<path fill-rule="evenodd" clip-rule="evenodd" d="M11.7874 49.7051H28.819L27.6964 63.5703H10.6648L11.7874 49.7051Z" fill="white"/>
<path fill-rule="evenodd" clip-rule="evenodd" d="M36.0198 49.7051H53.0515L51.9289 63.5703H34.8972L36.0198 49.7051Z" fill="white"/>
<path fill-rule="evenodd" clip-rule="evenodd" d="M59.6265 49.7051H76.6582L75.5355 63.5703H58.5039L59.6265 49.7051Z" fill="white"/>
<path fill-rule="evenodd" clip-rule="evenodd" d="M82.3194 49.7051H99.351L98.2284 63.5703H81.1968L82.3194 49.7051Z" fill="white"/>
<path fill-rule="evenodd" clip-rule="evenodd" d="M9.86285 72.6523H26.8945L25.7719 86.5179H8.74023L9.86285 72.6523Z" fill="white"/>
<path fill-rule="evenodd" clip-rule="evenodd" d="M34.095 72.6523H51.1267L50.004 86.5179H32.9724L34.095 72.6523Z" fill="white"/>
<path fill-rule="evenodd" clip-rule="evenodd" d="M57.702 72.6523H74.7336L73.611 86.5179H56.5793L57.702 72.6523Z" fill="white"/>
<path fill-rule="evenodd" clip-rule="evenodd" d="M80.3951 72.6523H97.4263L96.3037 86.5179H79.2725L80.3951 72.6523Z" fill="white"/>
<path fill-rule="evenodd" clip-rule="evenodd" d="M8.01886 95.7461H25.0501L23.9275 109.611H6.89624L8.01886 95.7461Z" fill="white"/>
<path fill-rule="evenodd" clip-rule="evenodd" d="M32.2511 95.7461H49.2666L48.1439 109.611H31.1123L32.2511 95.7461Z" fill="white"/>
<path fill-rule="evenodd" clip-rule="evenodd" d="M55.858 95.7461H72.8896L71.767 109.611H54.7354L55.858 95.7461Z" fill="white"/>
<path fill-rule="evenodd" clip-rule="evenodd" d="M78.5506 95.7461H95.5822L94.4596 109.611H77.428L78.5506 95.7461Z" fill="white"/>
<path fill-rule="evenodd" clip-rule="evenodd" d="M39.4195 51.5108C39.9808 50.9989 40.7829 50.9989 41.2156 51.4947C41.7128 52.0545 42.1938 52.5981 42.691 53.1579C43.1721 53.7176 43.6693 54.2773 44.1665 54.8371C44.7919 54.2773 45.4012 53.7015 46.0266 53.1418C46.652 52.582 47.2775 52.0062 47.9029 51.4465C48.4642 50.9346 49.2662 50.9346 49.7151 51.4304C50.1643 51.9262 50.0679 52.7578 49.5066 53.2536C48.8812 53.8294 48.2557 54.3891 47.6303 54.9489C47.0049 55.5247 46.3795 56.0844 45.754 56.6442C46.2512 57.2039 46.7484 57.7636 47.2456 58.3234C47.7428 58.8992 48.24 59.4589 48.7372 60.0187C49.1703 60.5145 49.0739 61.346 48.5126 61.8418C47.9674 62.3376 47.1492 62.3376 46.7004 61.8418C46.2032 61.2821 45.7222 60.7224 45.225 60.1626C44.7278 59.6029 44.2306 59.0271 43.7495 58.4673C43.1241 59.0431 42.4987 59.6029 41.8732 60.1626C41.2639 60.7224 40.6385 61.2821 40.0131 61.8418C39.4679 62.3376 38.6659 62.3376 38.2171 61.8418C37.784 61.346 37.8803 60.5305 38.4417 60.0347C39.051 59.475 39.6764 58.9153 40.2861 58.3395C40.9115 57.7797 41.5369 57.22 42.1462 56.6602C41.6651 56.1005 41.168 55.5408 40.6869 54.981C40.1897 54.4213 39.7086 53.8776 39.2114 53.3179C38.778 52.8221 38.8743 52.0066 39.4195 51.5108Z" fill="#D3DFF0"/>
<path fill-rule="evenodd" clip-rule="evenodd" d="M13.2629 74.4439C13.8242 73.9481 14.6262 73.9481 15.0589 74.4439C15.5561 74.9876 16.0372 75.5473 16.5344 76.1071C17.0316 76.6668 17.5127 77.2266 18.0098 77.7863C18.6353 77.2105 19.2607 76.6507 19.87 76.091C20.4954 75.5313 21.1209 74.9554 21.7463 74.3957C22.3076 73.8838 23.1096 73.8838 23.5584 74.3796C24.0076 74.8754 23.9113 75.707 23.35 76.2028C22.7245 76.7625 22.0991 77.3383 21.4737 77.8981C20.8483 78.4578 20.2228 79.0336 19.6135 79.5934C20.0946 80.1531 20.5918 80.7129 21.089 81.2726C21.5862 81.8323 22.0834 82.4081 22.5806 82.9679C23.0136 83.4637 22.9173 84.2792 22.3721 84.791C21.8108 85.2868 20.993 85.2868 20.5438 84.791C20.0627 84.2313 19.5655 83.6716 19.0683 83.0958C18.5712 82.536 18.0901 81.9763 17.5929 81.4165C16.9675 81.9763 16.342 82.5521 15.7327 83.1118C15.1073 83.6716 14.4819 84.2313 13.8726 84.791C13.3113 85.2868 12.5092 85.2868 12.0766 84.791C11.6435 84.2952 11.7237 83.4798 12.285 82.984C12.8943 82.4081 13.5198 81.8484 14.1294 81.2887C14.7549 80.7289 15.3803 80.1692 16.0057 79.6095C15.5085 79.0497 15.0113 78.49 14.5303 77.9302C14.0331 77.3705 13.552 76.8108 13.0548 76.2671C12.6214 75.7713 12.7173 74.9558 13.2629 74.4439Z" fill="#FFBD6F"/>
<path fill-rule="evenodd" clip-rule="evenodd" d="M35.6507 97.5377C36.1959 97.0419 36.9979 97.0419 37.4467 97.5377C37.9278 98.0814 38.425 98.6411 38.9061 99.2008C39.4033 99.7606 39.9005 100.32 40.3815 100.88C41.007 100.32 41.6324 99.7445 42.2578 99.1847C42.8832 98.625 43.4925 98.0492 44.118 97.4895C44.6793 96.9776 45.497 96.9776 45.9301 97.4734C46.3793 97.9692 46.283 98.8007 45.7216 99.2965C45.0962 99.8563 44.4708 100.432 43.8454 100.992C43.2361 101.552 42.6106 102.127 41.9852 102.687C42.4824 103.247 42.9635 103.807 43.4607 104.366C43.9579 104.926 44.4551 105.502 44.9522 106.062C45.4014 106.557 45.3051 107.373 44.7438 107.885C44.1825 108.381 43.3647 108.381 42.9316 107.885C42.4344 107.325 41.9372 106.765 41.44 106.19C40.959 105.63 40.4618 105.07 39.9646 104.51C39.3392 105.07 38.7299 105.646 38.1044 106.206C37.479 106.765 36.8697 107.325 36.2443 107.885C35.6991 108.381 34.8809 108.381 34.4482 107.885C34.0152 107.389 34.1115 106.574 34.6567 106.078C35.2821 105.518 35.8914 104.942 36.5169 104.382C37.1262 103.823 37.7516 103.263 38.377 102.703C37.8798 102.143 37.3988 101.584 36.9016 101.024C36.4205 100.464 35.9233 99.9045 35.4422 99.3609C35.0092 98.8651 35.1055 98.0496 35.6507 97.5377Z" fill="#FFBD6F"/>
<path fill-rule="evenodd" clip-rule="evenodd" d="M91.4608 76.5228L92.2628 74.2999L90.4507 73.708C90.1458 72.8765 90.547 71.7091 89.5204 71.1973C88.574 71.2612 89.7611 72.6525 89.5043 73.4201C87.9808 73.2444 87.4675 71.4212 86.2489 71.8527C84.7094 72.3324 84.0359 73.9477 85.6074 74.7954C86.8102 75.3229 87.7405 75.2433 88.7506 75.2912L91.4608 76.5228Z" fill="#FCC0A9"/>
<path fill-rule="evenodd" clip-rule="evenodd" d="M106.471 129.857L104.9 130.433C102.943 131.633 98.1799 131.201 99.0461 134L108.252 133.776C108.235 132.64 108.3 131.425 107.674 130.353L106.471 129.857Z" fill="#0A0A0C"/>
<path fill-rule="evenodd" clip-rule="evenodd" d="M107.69 128.803L104.884 128.899L104.9 130.434C105.846 130.706 106.808 130.658 107.674 130.354L107.69 128.803Z" fill="#FCC0A9"/>
<path fill-rule="evenodd" clip-rule="evenodd" d="M122.124 129.17L120.601 129.89C118.772 131.265 113.993 131.297 115.116 134L124.257 132.88C124.129 131.761 124.081 130.545 123.359 129.538L122.124 129.17Z" fill="#0A0A0C"/>
<path fill-rule="evenodd" clip-rule="evenodd" d="M123.214 128.004L120.44 128.356L120.6 129.891C121.563 130.067 122.525 129.923 123.359 129.539L123.214 128.004Z" fill="#FCC0A9"/>
<path fill-rule="evenodd" clip-rule="evenodd" d="M114.923 85.0957L120.68 90.373L120.488 109.708L123.984 128.051L119.654 128.531L114.009 110.252L113.271 100.864L110.272 111.131L108.107 129.602L104.451 129.522L104.275 111.451L108.172 90.0372L110.433 87.2546L114.138 88.8221L114.923 85.0957Z" fill="#1BA49D"/>
<path fill-rule="evenodd" clip-rule="evenodd" d="M120.632 67.5034C124.802 70.0621 129.068 73.6923 132.628 76.875C133.126 77.4508 133.078 77.9784 132.757 78.4263L123.295 89.6372L121.274 87.4461L126.999 79.0021L121.771 76.875L120.681 90.3726C116.303 93.7471 112.438 89.7968 108.172 90.0369L107.546 75.6759L104.643 80.5217C103.922 81.609 102.767 80.9375 101.612 80.5217L90.3381 76.5235L91.0116 73.5648C94.604 74.3803 98.132 75.7237 101.724 76.5235C102.991 73.5009 103.424 69.1512 106.215 67.9517C108.877 66.8637 117.441 65.8081 120.632 67.5034Z" fill="#FF8B03"/>
<path fill-rule="evenodd" clip-rule="evenodd" d="M45.2093 55.5566C44.8887 56.1485 45.1129 56.884 45.7065 57.188L49.459 59.203C50.0526 59.5069 50.7901 59.299 51.095 58.7072C51.4156 58.1153 51.1913 57.3798 50.6139 57.0758L46.8452 55.0608C46.2517 54.7568 45.5138 54.9647 45.2093 55.5566Z" fill="#FFBD6F"/>
<path fill-rule="evenodd" clip-rule="evenodd" d="M61.8238 65.1696L62.0803 64.562L62.4492 64.0023L62.3367 63.9544L64.165 59.6844L62.8021 58.9646L48.5927 55.9902L48.0475 57.0775L47.4382 58.117L57.8144 68.2723L59.1616 68.9921L61.7113 65.1218L61.8238 65.1696Z" fill="#E07D8C"/>
<path fill-rule="evenodd" clip-rule="evenodd" d="M109.262 89.7325C107.899 92.2912 108.877 95.5217 111.443 96.8812L117.088 99.9039C119.67 101.263 122.893 100.288 124.257 97.7289C125.636 95.1702 124.658 91.9558 122.092 90.5802L116.447 87.5736C113.865 86.198 110.641 87.1735 109.262 89.7325Z" fill="#E07D8C"/>
<path fill-rule="evenodd" clip-rule="evenodd" d="M60.2843 59.9863L61.6795 62.6411L59.0331 62.929L60.2521 65.2958L57.2693 65.6159L58.6484 68.2867L57.9588 68.3506L115.148 98.8639L120.151 89.5402L62.9465 59.043L63.2832 59.6666L60.2843 59.9863Z" fill="#FFBD6F"/>
<path d="M117.389 88.0628L112.386 97.3867L115.144 98.8585L120.148 89.5346L117.389 88.0628Z" fill="#D3DFF0"/>
<path fill-rule="evenodd" clip-rule="evenodd" d="M121.306 88.0214C120.761 88.5651 118.885 88.0536 118.965 88.6451C119.093 89.2209 120.44 88.933 120.472 89.157C120.825 89.9886 118.66 91.2359 119.029 91.8757C119.911 93.4109 122.236 92.1157 123.006 89.5088L121.482 87.8457C121.434 87.8936 121.37 87.9575 121.306 88.0214Z" fill="#FCC0A9"/>
<path d="M116.509 63.1761L115.963 67.4209C115.963 67.4209 114.872 68.2915 113.289 68.1827C111.706 68.074 110.724 67.0943 110.724 67.0943L111.379 61.6523L116.509 63.1761Z" fill="#FC9A73"/>
<path d="M114.074 54.1263C116.722 54.5298 118.666 56.5264 117.311 61.0161C115.957 65.5059 113.479 65.7728 111.334 65.295C109.189 64.8172 108.548 64.5227 109.037 60.2546C109.452 56.6282 109.588 53.4429 114.074 54.1263Z" fill="#FCC0A9"/>
<path d="M119.501 57.5469C119.666 58.7494 119.644 59.9692 118.902 60.8211C118.159 61.6729 117.503 64.1194 116.709 64.0677C115.915 64.016 116.591 58.8984 116.591 58.8984L119.501 57.5469Z" fill="#0A0A0C"/>
<path d="M109.305 55.5849C109.305 55.5849 109.99 57.1876 111.882 56.4961C113.774 55.8047 112.231 58.0685 113.811 57.6275C115.39 57.1864 114.934 59.131 114.273 61.0862C115.22 61.3515 115.089 61.425 115.089 61.425L115.934 59.3454C115.934 59.3454 119.577 59.6065 119.476 58.2129C119.375 56.8193 120.625 54.846 119.216 54.3529C117.806 53.8598 117.443 51.6182 115.522 51.8774C113.601 52.1365 112.926 50.6782 110.88 51.5558C108.833 52.4336 106.502 52.313 109.305 55.5849Z" fill="#0A0A0C"/>
<path d="M115.94 59.3371C118.891 57.4833 116.828 63.573 114.872 62.1005L115.94 59.3371Z" fill="#FCC0A9"/>
</g>
<defs>
<clipPath id="clip0_695_4435">
<rect width="133" height="134" fill="white"/>
</clipPath>
</defs>
</svg>
