<svg width="24" height="24" viewBox="0 0 24 24" fill="none" xmlns="http://www.w3.org/2000/svg">
<path d="M23.1463 11.1262V12.4824C23.1279 12.6449 23.1087 12.8073 23.091 12.9705C22.8135 15.4609 21.8625 17.6577 20.1813 19.5204C18.3986 21.4981 16.19 22.7323 13.5613 23.1976C13.1263 23.2749 12.6849 23.3182 12.2456 23.3778H10.8908C10.5033 23.3288 10.1101 23.2941 9.72905 23.2295C7.31115 22.8259 5.20339 21.786 3.46963 20.0539C0.868637 17.4556 -0.276083 14.2969 0.0560497 10.6403C0.2796 8.18529 1.24051 6.01615 2.88272 4.17259C5.06358 1.72468 7.80793 0.405324 11.0824 0.245724C13.3662 0.135069 15.5137 0.667068 17.4696 1.85875C20.4744 3.69095 22.3181 6.34528 22.9675 9.8125C23.047 10.2466 23.0874 10.6892 23.1463 11.1262ZM9.78724 13.7337C9.33162 13.3166 8.91007 12.93 8.48781 12.5449C7.84909 11.9667 7.22528 11.3801 6.57734 10.8162C6.24166 10.524 5.83572 10.4998 5.43049 10.6687C5.02526 10.8375 4.81093 11.1588 4.76764 11.5908C4.72435 12.0228 4.90958 12.3604 5.22113 12.6456C6.46544 13.7744 7.70787 14.905 8.94839 16.0376C9.55092 16.5866 10.1598 16.5739 10.7403 15.9986C13.131 13.6266 15.5217 11.2543 17.9124 8.88185C17.9834 8.81092 18.0544 8.73999 18.1133 8.66905C18.2221 8.53852 18.3008 8.38561 18.3437 8.22121C18.3866 8.05681 18.3927 7.88497 18.3616 7.71794C18.3305 7.5509 18.263 7.39277 18.1637 7.25483C18.0645 7.11688 17.936 7.0025 17.7875 6.91984C17.2907 6.63611 16.7606 6.73187 16.2972 7.19648C14.1913 9.30036 12.0859 11.4047 9.98098 13.5095C9.91782 13.5713 9.86318 13.645 9.78724 13.7337Z" fill="#4EB664"/>
</svg>
