<svg width="18" height="24" viewBox="0 0 18 24" fill="none" xmlns="http://www.w3.org/2000/svg">
<path d="M11.0914 17.4698C14.6052 17.7507 17.1976 18.7589 17.1976 19.9615C17.1976 21.3802 13.5696 22.5324 9.09882 22.5324C4.62804 22.5324 1 21.3874 1 19.9615C1 18.7301 3.72817 17.7003 7.37764 17.4482" stroke="black" stroke-miterlimit="10"/>
<path d="M15.6764 7.63251C15.6764 11.298 9.09882 20.4438 9.09882 19.9397C9.09882 19.9397 2.52121 11.2908 2.52121 7.63251C2.52121 3.97419 5.46364 1 9.09882 1C12.734 1 15.6764 3.96699 15.6764 7.63251Z" stroke="black" stroke-miterlimit="10"/>
<path d="M9.09887 10.4309C10.8194 10.4309 12.2142 9.03608 12.2142 7.31553C12.2142 5.59498 10.8194 4.2002 9.09887 4.2002C7.37832 4.2002 5.98354 5.59498 5.98354 7.31553C5.98354 9.03608 7.37832 10.4309 9.09887 10.4309Z" stroke="black" stroke-miterlimit="10"/>
</svg>
