<svg width="17" height="16" viewBox="0 0 17 16" fill="none" xmlns="http://www.w3.org/2000/svg">
<path d="M5.68455 4.96363L7.59833 3.1889V10.5887C7.59833 10.7934 7.68638 10.9897 7.84311 11.1344C7.99983 11.2791 8.2124 11.3604 8.43405 11.3604C8.65569 11.3604 8.86826 11.2791 9.02499 11.1344C9.18171 10.9897 9.26976 10.7934 9.26976 10.5887V3.1889L11.1835 4.96363C11.2612 5.03595 11.3537 5.09336 11.4555 5.13253C11.5573 5.17171 11.6666 5.19188 11.7769 5.19188C11.8872 5.19188 11.9965 5.17171 12.0983 5.13253C12.2001 5.09336 12.2926 5.03595 12.3703 4.96363C12.4486 4.8919 12.5108 4.80656 12.5532 4.71253C12.5956 4.6185 12.6175 4.51764 12.6175 4.41578C12.6175 4.31392 12.5956 4.21306 12.5532 4.11903C12.5108 4.025 12.4486 3.93966 12.3703 3.86793L9.0274 0.781446C8.94792 0.711197 8.8542 0.65613 8.75162 0.619405C8.54815 0.542229 8.31994 0.542229 8.11648 0.619405C8.01389 0.65613 7.92017 0.711197 7.84069 0.781446L4.49783 3.86793C4.41991 3.93987 4.3581 4.02529 4.31593 4.11929C4.27376 4.21329 4.25206 4.31404 4.25206 4.41578C4.25206 4.51753 4.27376 4.61827 4.31593 4.71228C4.3581 4.80628 4.41991 4.89169 4.49783 4.96363C4.57575 5.03558 4.66826 5.09265 4.77007 5.13158C4.87188 5.17052 4.98099 5.19056 5.09119 5.19056C5.20139 5.19056 5.3105 5.17052 5.41231 5.13158C5.51412 5.09265 5.60663 5.03558 5.68455 4.96363ZM15.9555 9.81713C15.7338 9.81713 15.5213 9.89842 15.3645 10.0431C15.2078 10.1878 15.1198 10.3841 15.1198 10.5887V13.6752C15.1198 13.8799 15.0317 14.0761 14.875 14.2209C14.7183 14.3656 14.5057 14.4469 14.284 14.4469H2.58405C2.3624 14.4469 2.14983 14.3656 1.99311 14.2209C1.83638 14.0761 1.74833 13.8799 1.74833 13.6752V10.5887C1.74833 10.3841 1.66028 10.1878 1.50356 10.0431C1.34683 9.89842 1.13426 9.81713 0.912619 9.81713C0.690973 9.81713 0.478406 9.89842 0.321679 10.0431C0.164952 10.1878 0.0769043 10.3841 0.0769043 10.5887V13.6752C0.0769043 14.2892 0.341049 14.878 0.811229 15.3121C1.28141 15.7462 1.91911 15.9901 2.58405 15.9901H14.284C14.949 15.9901 15.5867 15.7462 16.0569 15.3121C16.527 14.878 16.7912 14.2892 16.7912 13.6752V10.5887C16.7912 10.3841 16.7031 10.1878 16.5464 10.0431C16.3897 9.89842 16.1771 9.81713 15.9555 9.81713Z" fill="white"/>
</svg>
