<svg width="44" height="44" viewBox="0 0 44 44" fill="none" xmlns="http://www.w3.org/2000/svg">
<circle cx="21.6869" cy="21.8507" r="21.4925" fill="#E07525" fill-opacity="0.1"/>
<path d="M23.5976 14.6863C23.2176 14.6863 22.8532 14.8372 22.5845 15.1059C22.3158 15.3747 22.1648 15.7391 22.1648 16.1191C22.1648 16.4991 22.3158 16.8636 22.5845 17.1323C22.8532 17.401 23.2176 17.552 23.5976 17.552C23.9777 17.552 24.3421 17.401 24.6108 17.1323C24.8795 16.8636 25.0305 16.4991 25.0305 16.1191C25.0305 15.7391 24.8795 15.3747 24.6108 15.1059C24.3421 14.8372 23.9777 14.6863 23.5976 14.6863ZM23.2538 19.2427C22.117 19.3382 19.0126 21.8122 19.0126 21.8122C18.8215 21.9555 18.8788 21.946 19.0317 22.2134C19.1845 22.4714 19.1654 22.4905 19.3469 22.3663C19.5379 22.2421 19.8532 22.0415 20.3785 21.7167C22.4036 20.4176 20.7033 23.417 19.8341 28.4702C19.4902 30.9728 21.7445 29.6833 22.3272 29.3012C22.9003 28.9287 24.4382 27.8684 24.5911 27.7633C24.8012 27.62 24.6484 27.5054 24.486 27.2666C24.3714 27.1042 24.2568 27.2188 24.2568 27.2188C23.6359 27.6296 22.4991 28.4893 22.3463 27.9448C22.1648 27.4003 23.3302 23.6654 23.9702 21.0958C24.0753 20.4845 24.3618 19.1472 23.2538 19.2427Z" fill="#E07525"/>
</svg>
