<svg width="43" height="43" viewBox="0 0 43 43" fill="none" xmlns="http://www.w3.org/2000/svg">
<ellipse cx="21.463" cy="21.5" rx="21.463" ry="21.5" fill="#E07525" fill-opacity="0.1"/>
<path d="M14.3086 26.7553C14.3086 25.7416 14.7106 24.7694 15.4262 24.0526C16.1417 23.3358 17.1123 22.9331 18.1242 22.9331H25.7555C26.7675 22.9331 27.738 23.3358 28.4536 24.0526C29.1692 24.7694 29.5712 25.7416 29.5712 26.7553C29.5712 27.2622 29.3702 27.7483 29.0124 28.1067C28.6546 28.4651 28.1694 28.6664 27.6634 28.6664H16.2164C15.7104 28.6664 15.2252 28.4651 14.8674 28.1067C14.5096 27.7483 14.3086 27.2622 14.3086 26.7553Z" stroke="#E07525" stroke-width="1.91045" stroke-linejoin="round"/>
<path d="M21.9399 19.1108C23.5204 19.1108 24.8016 17.8273 24.8016 16.2441C24.8016 14.6609 23.5204 13.3774 21.9399 13.3774C20.3594 13.3774 19.0781 14.6609 19.0781 16.2441C19.0781 17.8273 20.3594 19.1108 21.9399 19.1108Z" stroke="#E07525" stroke-width="1.91045"/>
</svg>
