<svg width="18" height="15" viewBox="0 0 18 15" fill="none" xmlns="http://www.w3.org/2000/svg">
<path d="M7.52934 13.7993C7.38871 13.9398 7.19809 14.0187 6.99934 14.0187C6.80059 14.0187 6.60997 13.9398 6.46934 13.7993L0.21934 7.54935C0.0788896 7.40872 0 7.2181 0 7.01935C0 6.82059 0.0788896 6.62997 0.21934 6.48935L6.46934 0.239345C6.56101 0.14062 6.67762 0.0684492 6.80686 0.0304351C6.93611 -0.00757909 7.07322 -0.0100287 7.20374 0.0233445C7.33427 0.0567177 7.45338 0.124678 7.54852 0.220066C7.64366 0.315453 7.71131 0.434735 7.74434 0.565345C7.77765 0.695727 7.77526 0.832668 7.73744 0.961811C7.69961 1.09095 7.62773 1.20754 7.52934 1.29935L2.55934 6.26935H16.9993C17.1983 6.26935 17.389 6.34836 17.5297 6.48902C17.6703 6.62967 17.7493 6.82043 17.7493 7.01935C17.7493 7.21826 17.6703 7.40902 17.5297 7.54967C17.389 7.69033 17.1983 7.76935 16.9993 7.76935H2.55934L7.52934 12.7393C7.66979 12.88 7.74868 13.0706 7.74868 13.2693C7.74868 13.4681 7.66979 13.6587 7.52934 13.7993Z" fill="black"/>
</svg>
