<svg width="35" height="35" viewBox="0 0 35 35" fill="none" xmlns="http://www.w3.org/2000/svg">
<circle cx="17.5" cy="17.5" r="17.5" fill="#E07525" fill-opacity="0.1"/>
<path d="M18.6588 16.9722H19.4088V16.2222V13.8889C19.4088 13.8815 19.4117 13.8745 19.4169 13.8692C19.4221 13.864 19.4292 13.8611 19.4366 13.8611H24.1032C24.1106 13.8611 24.1177 13.864 24.1229 13.8692C24.1281 13.8745 24.131 13.8815 24.131 13.8889V23.2222C24.131 23.2296 24.1281 23.2367 24.1229 23.2419C24.1177 23.2471 24.1106 23.25 24.1032 23.25H10.1032C10.0958 23.25 10.0888 23.2471 10.0836 23.2419C10.0784 23.2367 10.0754 23.2296 10.0754 23.2222V10.7778C10.0754 10.7704 10.0784 10.7633 10.0836 10.7581C10.0888 10.7529 10.0958 10.75 10.1032 10.75H16.3254C16.3328 10.75 16.3399 10.7529 16.3451 10.7581C16.3503 10.7633 16.3532 10.7704 16.3532 10.7778V16.2222V16.9722H17.1032H18.6588ZM13.9921 11.5833H13.2421V12.3333V13.8889V14.6389H13.9921H15.5477H16.2977V13.8889V12.3333V11.5833H15.5477H13.9921ZM12.4366 20.8611H13.1866V20.1111V18.5556V17.8056H12.4366H10.881H10.131V18.5556V20.1111V20.8611H10.881H12.4366ZM12.4366 17.75H13.1866V17V15.4444V14.6944H12.4366H10.881H10.131V15.4444V17V17.75H10.881H12.4366ZM12.4366 14.6389H13.1866V13.8889V12.3333V11.5833H12.4366H10.881H10.131V12.3333V13.8889V14.6389H10.881H12.4366ZM15.5477 20.8611H16.2977V20.1111V18.5556V17.8056H15.5477H13.9921H13.2421V18.5556V20.1111V20.8611H13.9921H15.5477ZM15.5477 17.75H16.2977V17V15.4444V14.6944H15.5477H13.9921H13.2421V15.4444V17V17.75H13.9921H15.5477ZM22.5477 20.8611H23.2977V20.1111V18.5556V17.8056H22.5477H20.9921H20.2421V18.5556V20.1111V20.8611H20.9921H22.5477ZM22.5477 17.75H23.2977V17V15.4444V14.6944H22.5477H20.9921H20.2421V15.4444V17V17.75H20.9921H22.5477Z" stroke="#E07525" stroke-width="1.5"/>
</svg>
