<svg width="35" height="35" viewBox="0 0 35 35" fill="none" xmlns="http://www.w3.org/2000/svg">
<path d="M17.5 24.1377C19.8329 24.1377 21.7242 22.2465 21.7242 19.9136C21.7242 17.5807 19.8329 15.6895 17.5 15.6895C15.1671 15.6895 13.2759 17.5807 13.2759 19.9136C13.2759 22.2465 15.1671 24.1377 17.5 24.1377Z" fill="#605E5E"/>
<path d="M30.1724 9.65487H26.215C25.9616 9.65493 25.7146 9.57523 25.5091 9.42706C25.3035 9.27889 25.1498 9.06977 25.0697 8.82935L24.6883 7.68401C24.5279 7.20339 24.2204 6.78542 23.8093 6.48931C23.3982 6.1932 22.9043 6.03397 22.3976 6.03418H12.6012C12.0946 6.03431 11.6009 6.19383 11.19 6.49015C10.7791 6.78647 10.4718 7.20457 10.3117 7.68521L9.93037 8.82935C9.85029 9.06977 9.69657 9.27889 9.491 9.42706C9.28543 9.57523 9.03843 9.65493 8.78503 9.65487H4.82761C4.18743 9.65487 3.57348 9.90918 3.1208 10.3619C2.66813 10.8145 2.41382 11.4285 2.41382 12.0687V26.5514C2.41382 27.1916 2.66813 27.8056 3.1208 28.2582C3.57348 28.7109 4.18743 28.9652 4.82761 28.9652H30.1724C30.8126 28.9652 31.4266 28.7109 31.8792 28.2582C32.3319 27.8056 32.5862 27.1916 32.5862 26.5514V12.0687C32.5862 11.4285 32.3319 10.8145 31.8792 10.3619C31.4266 9.90918 30.8126 9.65487 30.1724 9.65487ZM17.5 26.5514C13.8407 26.5514 10.8621 23.5728 10.8621 19.9135C10.8621 16.2542 13.8407 13.2756 17.5 13.2756C21.1593 13.2756 24.138 16.2542 24.138 19.9135C24.138 23.5728 21.1593 26.5514 17.5 26.5514ZM24.7414 14.4825C24.4213 14.4825 24.1143 14.3553 23.888 14.129C23.6617 13.9026 23.5345 13.5956 23.5345 13.2756C23.5345 12.9555 23.6617 12.6485 23.888 12.4222C24.1143 12.1958 24.4213 12.0687 24.7414 12.0687C25.0615 12.0687 25.3685 12.1958 25.5948 12.4222C25.8211 12.6485 25.9483 12.9555 25.9483 13.2756C25.9483 13.5956 25.8211 13.9026 25.5948 14.129C25.3685 14.3553 25.0615 14.4825 24.7414 14.4825Z" fill="#605E5E"/>
<path d="M6.63791 8.44811H4.22411C4.06407 8.44811 3.91058 8.38453 3.79741 8.27136C3.68424 8.15819 3.62067 8.0047 3.62067 7.84466C3.62067 7.68461 3.68424 7.53113 3.79741 7.41796C3.91058 7.30479 4.06407 7.24121 4.22411 7.24121H6.63791C6.79795 7.24121 6.95144 7.30479 7.06461 7.41796C7.17778 7.53113 7.24136 7.68461 7.24136 7.84466C7.24136 8.0047 7.17778 8.15819 7.06461 8.27136C6.95144 8.38453 6.79795 8.44811 6.63791 8.44811Z" fill="#605E5E"/>
</svg>
