<svg width="43" height="43" viewBox="0 0 43 43" fill="none" xmlns="http://www.w3.org/2000/svg">
<circle cx="21.5973" cy="21.4926" r="21.403" fill="#E07525" fill-opacity="0.1"/>
<path d="M27.2222 28.2225H14.7778V15.778H27.2222M27.2222 14.0002H14.7778C14.3063 14.0002 13.8541 14.1875 13.5207 14.5209C13.1873 14.8543 13 15.3065 13 15.778V28.2225C13 28.694 13.1873 29.1461 13.5207 29.4795C13.8541 29.8129 14.3063 30.0002 14.7778 30.0002H27.2222C27.6937 30.0002 28.1459 29.8129 28.4793 29.4795C28.8127 29.1461 29 28.694 29 28.2225V15.778C29 15.3065 28.8127 14.8543 28.4793 14.5209C28.1459 14.1875 27.6937 14.0002 27.2222 14.0002ZM25 25.778C25 24.4447 22.3333 23.778 21 23.778C19.6667 23.778 17 24.4447 17 25.778V26.4447H25M21 22.2225C21.5304 22.2225 22.0391 22.0118 22.4142 21.6367C22.7893 21.2616 23 20.7529 23 20.2225C23 19.692 22.7893 19.1833 22.4142 18.8083C22.0391 18.4332 21.5304 18.2225 21 18.2225C20.4696 18.2225 19.9609 18.4332 19.5858 18.8083C19.2107 19.1833 19 19.692 19 20.2225C19 20.7529 19.2107 21.2616 19.5858 21.6367C19.9609 22.0118 20.4696 22.2225 21 22.2225Z" fill="#E07525"/>
</svg>
