<svg width="43" height="43" viewBox="0 0 43 43" fill="none" xmlns="http://www.w3.org/2000/svg">
<circle cx="21.4925" cy="21.4925" r="21.4925" fill="#E07525" fill-opacity="0.1"/>
<g clip-path="url(#clip0_510_2718)">
<path d="M28.2 13.224V12.9C28.2 12.4038 27.7962 12 27.3 12C26.8038 12 26.4 12.4038 26.4 12.9V13.2H24V12.9C24 12.4038 23.5962 12 23.1 12C22.6038 12 22.2 12.4038 22.2 12.9V13.2H19.8V12.9C19.8 12.4038 19.3962 12 18.9 12C18.4038 12 18 12.4038 18 12.9V13.2H15.6V12.9C15.6 12.4038 15.1962 12 14.7 12C14.2038 12 13.8 12.4038 13.8 12.9V13.224C12.7842 13.3704 12 14.2443 12 15.3V27.9C12 29.0577 12.9423 30 14.1 30H27.9C29.0577 30 30 29.0577 30 27.9V15.3C30 14.2443 29.2158 13.3704 28.2 13.224ZM27 12.9C27 12.7344 27.1344 12.6 27.3 12.6C27.4656 12.6 27.6 12.7344 27.6 12.9V14.1C27.6 14.2656 27.4656 14.4 27.3 14.4C27.1344 14.4 27 14.2656 27 14.1V12.9ZM22.8 12.9C22.8 12.7344 22.9344 12.6 23.1 12.6C23.2656 12.6 23.4 12.7344 23.4 12.9V14.1C23.4 14.2656 23.2656 14.4 23.1 14.4C22.9344 14.4 22.8 14.2656 22.8 14.1V12.9ZM18.6 12.9C18.6 12.7344 18.7344 12.6 18.9 12.6C19.0656 12.6 19.2 12.7344 19.2 12.9V14.1C19.2 14.2656 19.0656 14.4 18.9 14.4C18.7344 14.4 18.6 14.2656 18.6 14.1V12.9ZM14.4 12.9C14.4 12.7344 14.5344 12.6 14.7 12.6C14.8656 12.6 15 12.7344 15 12.9V14.1C15 14.2656 14.8656 14.4 14.7 14.4C14.5344 14.4 14.4 14.2656 14.4 14.1V12.9ZM27.9 29.4H14.1C13.2729 29.4 12.6 28.7271 12.6 27.9V16.8H29.4V27.9C29.4 28.7271 28.7271 29.4 27.9 29.4ZM29.4 16.2H12.6V15.3C12.6 14.5758 13.1163 13.9698 13.8 13.8303V14.1C13.8 14.5962 14.2038 15 14.7 15C15.1962 15 15.6 14.5962 15.6 14.1V13.8H18V14.1C18 14.5962 18.4038 15 18.9 15C19.3962 15 19.8 14.5962 19.8 14.1V13.8H22.2V14.1C22.2 14.5962 22.6038 15 23.1 15C23.5962 15 24 14.5962 24 14.1V13.8H26.4V14.1C26.4 14.5962 26.8038 15 27.3 15C27.7962 15 28.2 14.5962 28.2 14.1V13.8303C28.8837 13.9698 29.4 14.5755 29.4 15.3V16.2Z" fill="#E07525"/>
<path d="M20.9996 17.7C18.0221 17.7 15.5996 20.1225 15.5996 23.1C15.5996 26.0775 18.0221 28.5 20.9996 28.5C23.9771 28.5 26.3996 26.0775 26.3996 23.1C26.3996 20.1225 23.9771 17.7 20.9996 17.7ZM20.9996 27.9C18.353 27.9 16.1996 25.7466 16.1996 23.1C16.1996 20.4534 18.353 18.3 20.9996 18.3C23.6462 18.3 25.7996 20.4534 25.7996 23.1C25.7996 25.7466 23.6462 27.9 20.9996 27.9Z" fill="#E07525"/>
<path d="M23.4 21.9001H22.2V20.7001C22.2 20.3692 21.9309 20.1001 21.6 20.1001H20.4C20.0691 20.1001 19.8 20.3692 19.8 20.7001V21.9001H18.6C18.2691 21.9001 18 22.1692 18 22.5001V23.7001C18 24.031 18.2691 24.3001 18.6 24.3001H19.8V25.5001C19.8 25.831 20.0691 26.1001 20.4 26.1001H21.6C21.9309 26.1001 22.2 25.831 22.2 25.5001V24.3001H23.4C23.7309 24.3001 24 24.031 24 23.7001V22.5001C24 22.1692 23.7309 21.9001 23.4 21.9001ZM23.4 23.7001H21.9C21.7341 23.7001 21.6 23.8342 21.6 24.0001V25.5001H20.4V24.0001C20.4 23.8342 20.2659 23.7001 20.1 23.7001H18.6V22.5001H20.1C20.2659 22.5001 20.4 22.366 20.4 22.2001V20.7001H21.6V22.2001C21.6 22.366 21.7341 22.5001 21.9 22.5001L23.4 22.4995V23.7001Z" fill="#E07525"/>
</g>
<defs>
<clipPath id="clip0_510_2718">
<rect width="18" height="18" fill="white" transform="translate(12 12)"/>
</clipPath>
</defs>
</svg>
