<svg width="43" height="43" viewBox="0 0 43 43" fill="none" xmlns="http://www.w3.org/2000/svg">
<circle cx="21.4925" cy="21.4925" r="21.4925" fill="#E07525" fill-opacity="0.1"/>
<path fill-rule="evenodd" clip-rule="evenodd" d="M25.5515 30.3821H10.463C10.3234 30.3821 10.21 30.2687 10.21 30.129V28.6457C10.21 28.5061 10.3234 28.3931 10.463 28.3931H25.5515C25.6912 28.3931 25.8046 28.5061 25.8046 28.6457V30.129C25.8046 30.2687 25.6912 30.3821 25.5515 30.3821ZM10.7157 29.8763H25.2989V28.8988H10.7157V29.8763Z" fill="#E07525"/>
<path fill-rule="evenodd" clip-rule="evenodd" d="M18.3848 28.9078C17.2432 28.9078 16.1152 28.6053 15.1235 28.0325C11.9984 26.2283 10.9237 22.218 12.728 19.0933C13.5998 17.5834 15.0101 16.5018 16.6987 16.0485C16.7752 16.0279 16.8573 16.0442 16.9196 16.0932C16.9823 16.1418 17.0184 16.217 17.0171 16.296V16.3214C17.0171 16.6045 17.0992 16.8825 17.2543 17.1219C17.2986 17.1898 17.3076 17.2749 17.2784 17.3505C17.2492 17.4261 17.1856 17.4833 17.1074 17.5039C15.8011 17.8498 14.7114 18.6829 14.0377 19.8495C12.6507 22.2519 13.4765 25.3354 15.8793 26.7228C16.642 27.1628 17.5091 27.3957 18.3861 27.3957C20.1534 27.3957 21.812 26.4568 22.7144 24.9452C22.7599 24.8687 22.8424 24.8219 22.9314 24.8219H24.0949C24.1852 24.8219 24.2685 24.87 24.3141 24.9482C24.3592 25.0264 24.3592 25.1231 24.3141 25.2013L24.0623 25.637C22.8974 27.6544 20.7219 28.9078 18.3848 28.9078ZM16.5346 16.6239C15.1076 17.0841 13.9191 18.0418 13.1663 19.3464C11.5012 22.2296 12.493 25.9296 15.3762 27.5942C16.2914 28.1227 17.3317 28.402 18.3848 28.402C20.5419 28.402 22.5494 27.2458 23.624 25.3843L23.6567 25.3276H23.0727C22.5786 26.1084 21.8949 26.7542 21.088 27.2024C20.2634 27.6595 19.3293 27.9015 18.3861 27.9015C17.4202 27.9015 16.4658 27.6454 15.6267 27.1607C12.9824 25.634 12.0732 22.2408 13.5998 19.5965C14.2882 18.4041 15.3719 17.5284 16.6734 17.1047C16.6072 16.9509 16.5604 16.7897 16.5346 16.6239Z" fill="#E07525"/>
<path fill-rule="evenodd" clip-rule="evenodd" d="M26.7546 25.3278H20.4919C20.3523 25.3278 20.2393 25.2148 20.2393 25.0752V23.9674C20.2393 23.8278 20.3523 23.7144 20.4919 23.7144H26.7546C26.8943 23.7144 27.0077 23.8278 27.0077 23.9674V25.0752C27.0077 25.2148 26.8943 25.3278 26.7546 25.3278ZM20.745 24.8221H26.502V24.2201L20.745 24.2205V24.8221Z" fill="#E07525"/>
<path fill-rule="evenodd" clip-rule="evenodd" d="M18.4969 18.3028C17.4025 18.3028 16.5117 17.4125 16.5117 16.3177C16.5117 15.2233 17.4025 14.3325 18.4969 14.3325C19.5913 14.3325 20.482 15.2233 20.482 16.3177C20.482 17.4125 19.5913 18.3028 18.4969 18.3028ZM18.4969 14.8387C17.6813 14.8387 17.0179 15.5021 17.0179 16.3177C17.0179 17.1337 17.6813 17.7971 18.4969 17.7971C19.3124 17.7971 19.9759 17.1332 19.9759 16.3177C19.9759 15.5021 19.3124 14.8387 18.4969 14.8387Z" fill="#E07525"/>
<path fill-rule="evenodd" clip-rule="evenodd" d="M20.4696 19.7736C20.4021 19.7736 20.3381 19.747 20.2904 19.6997L18.762 18.1713C18.6979 18.1073 18.673 18.0136 18.6967 17.9264C18.7203 17.8391 18.7886 17.7708 18.8763 17.7476C19.5238 17.5766 19.9763 16.9884 19.9763 16.3176C19.9763 15.5021 19.3124 14.8386 18.4969 14.8386C17.8261 14.8386 17.2383 15.2907 17.0669 15.9382C17.0437 16.0259 16.9753 16.0942 16.8881 16.1178C16.8009 16.1414 16.7076 16.1165 16.6436 16.0525L15.5312 14.94C15.4323 14.8412 15.4323 14.6809 15.5312 14.5821L17.958 12.1557C18.0564 12.0568 18.2167 12.0568 18.3155 12.1557L23.0752 16.9153C23.174 17.0137 23.174 17.174 23.0752 17.2728L20.6483 19.6997C20.6006 19.747 20.5366 19.7736 20.4696 19.7736ZM19.3949 18.0884L20.4696 19.163L22.5385 17.0941L18.1368 12.6919L16.0674 14.7613L16.7261 15.4196C17.0587 14.7639 17.7385 14.3325 18.4969 14.3325C19.5913 14.3325 20.482 15.2232 20.482 16.3176C20.482 17.0764 20.0506 17.7558 19.3949 18.0884Z" fill="#E07525"/>
<path fill-rule="evenodd" clip-rule="evenodd" d="M21.9722 20.0744C21.9051 20.0744 21.8407 20.0478 21.793 20.0001L20.8915 19.0986C20.7927 18.9998 20.7927 18.8395 20.8915 18.7407L22.1157 17.5165C22.1634 17.4688 22.2274 17.4421 22.2944 17.4421C22.3619 17.4421 22.4259 17.4688 22.4736 17.5165L23.3751 18.418C23.4739 18.5168 23.4739 18.6771 23.3751 18.7759L22.1509 20.0005C22.1032 20.0478 22.0392 20.0744 21.9722 20.0744ZM21.4278 18.9194L21.9722 19.4638L22.8388 18.5971L22.2949 18.0527L21.4278 18.9194Z" fill="#E07525"/>
<path fill-rule="evenodd" clip-rule="evenodd" d="M16.1221 14.601C16.055 14.601 15.9906 14.5744 15.9433 14.5267L15.0663 13.6501C14.9675 13.5513 14.9675 13.391 15.0663 13.2926L16.6673 11.6916C16.7146 11.6443 16.779 11.6177 16.8461 11.6177C16.9131 11.6177 16.9776 11.6443 17.0248 11.6916L17.9014 12.5686C18.0002 12.6674 18.0002 12.8272 17.9014 12.9261L16.3008 14.5267C16.2535 14.5744 16.1891 14.601 16.1221 14.601ZM15.603 13.4713L16.1221 13.9904L17.3651 12.7473L16.8461 12.2283L15.603 13.4713Z" fill="#E07525"/>
<path fill-rule="evenodd" clip-rule="evenodd" d="M28.9523 14.6126C28.2145 14.6126 27.6143 14.0123 27.6143 13.2746C27.6143 12.5368 28.2145 11.9365 28.9523 11.9365C29.6896 11.9365 30.2899 12.5368 30.2899 13.2746C30.2899 14.0123 29.6896 14.6126 28.9523 14.6126ZM28.9523 12.4427C28.4934 12.4427 28.12 12.8157 28.12 13.2746C28.12 13.7335 28.4934 14.1069 28.9523 14.1069C29.4108 14.1069 29.7842 13.7335 29.7842 13.2746C29.7842 12.8157 29.4108 12.4427 28.9523 12.4427Z" fill="#E07525"/>
<path fill-rule="evenodd" clip-rule="evenodd" d="M27.6003 20.2621C26.863 20.2621 26.2627 19.6622 26.2627 18.9245C26.2627 18.1867 26.863 17.5864 27.6003 17.5864C28.3381 17.5864 28.9384 18.1867 28.9384 18.9245C28.9384 19.6622 28.3381 20.2621 27.6003 20.2621ZM27.6003 18.0922C27.1418 18.0922 26.7684 18.4656 26.7684 18.9245C26.7684 19.3834 27.1418 19.7563 27.6003 19.7563C28.0592 19.7563 28.4326 19.3834 28.4326 18.9245C28.4326 18.4656 28.0592 18.0922 27.6003 18.0922Z" fill="#E07525"/>
<path fill-rule="evenodd" clip-rule="evenodd" d="M30.8487 17.8692C30.3296 17.8692 29.9072 17.4468 29.9072 16.9278C29.9072 16.4087 30.3296 15.9863 30.8487 15.9863C31.3677 15.9863 31.7901 16.4087 31.7901 16.9278C31.7901 17.4468 31.3677 17.8692 30.8487 17.8692ZM30.8487 16.4921C30.6085 16.4921 30.413 16.6876 30.413 16.9278C30.413 17.168 30.6085 17.3635 30.8487 17.3635C31.0889 17.3635 31.2844 17.168 31.2844 16.9278C31.2844 16.6876 31.0889 16.4921 30.8487 16.4921Z" fill="#E07525"/>
<path fill-rule="evenodd" clip-rule="evenodd" d="M25.4258 16.7052C24.9068 16.7052 24.4844 16.2828 24.4844 15.7637C24.4844 15.2446 24.9068 14.8223 25.4258 14.8223C25.9449 14.8223 26.3673 15.2442 26.3673 15.7637C26.3673 16.2828 25.9449 16.7052 25.4258 16.7052ZM25.4258 15.328C25.1856 15.328 24.9901 15.5231 24.9901 15.7633C24.9901 16.0035 25.1856 16.199 25.4258 16.199C25.666 16.199 25.8615 16.0035 25.8615 15.7633C25.8615 15.5231 25.666 15.328 25.4258 15.328Z" fill="#E07525"/>
<path fill-rule="evenodd" clip-rule="evenodd" d="M27.6004 18.0922C27.5699 18.0922 27.539 18.087 27.5089 18.075C27.3787 18.0247 27.3143 17.8782 27.365 17.748L27.7276 16.8134C27.7783 16.6832 27.9249 16.6188 28.055 16.6695C28.1852 16.7197 28.2497 16.8663 28.1994 16.9965L27.8363 17.931C27.7977 18.0311 27.7018 18.0922 27.6004 18.0922ZM28.462 15.8741C28.4315 15.8741 28.4005 15.8685 28.3704 15.8569C28.2402 15.8062 28.1758 15.6597 28.2265 15.5295L28.7163 14.2679C28.7666 14.1378 28.9136 14.0733 29.0438 14.124C29.174 14.1743 29.2384 14.3208 29.1877 14.451L28.6979 15.7126C28.6588 15.8127 28.5634 15.8741 28.462 15.8741Z" fill="#E07525"/>
<path fill-rule="evenodd" clip-rule="evenodd" d="M30.1802 17.0158C30.1601 17.0158 30.1399 17.0132 30.1197 17.0085L28.8169 16.688C28.6811 16.6549 28.5981 16.5178 28.6317 16.382C28.6647 16.2467 28.8022 16.1638 28.9376 16.1968L30.2404 16.517C30.3762 16.5505 30.4591 16.6875 30.4256 16.8229C30.3972 16.9385 30.2941 17.0158 30.1802 17.0158ZM27.5402 16.367C27.5201 16.367 27.4999 16.3644 27.4797 16.3593L26.054 16.0091C25.9182 15.9756 25.8352 15.8389 25.8688 15.7031C25.9019 15.5673 26.0394 15.4844 26.1747 15.5179L27.6004 15.8681C27.7358 15.9016 27.8191 16.0387 27.7856 16.1741C27.7572 16.2897 27.6537 16.367 27.5402 16.367Z" fill="#E07525"/>
<path fill-rule="evenodd" clip-rule="evenodd" d="M28.2129 17.2044C27.6939 17.2044 27.2715 16.782 27.2715 16.263C27.2715 15.7439 27.6939 15.3215 28.2129 15.3215C28.732 15.3215 29.1544 15.7439 29.1544 16.263C29.1544 16.782 28.732 17.2044 28.2129 17.2044ZM28.2129 15.8273C27.9727 15.8273 27.7772 16.0228 27.7772 16.263C27.7772 16.5032 27.9727 16.6987 28.2129 16.6987C28.4531 16.6987 28.6486 16.5032 28.6486 16.263C28.6486 16.0228 28.4531 15.8273 28.2129 15.8273Z" fill="#E07525"/>
<path fill-rule="evenodd" clip-rule="evenodd" d="M26.7541 24.2199H24.6237C24.4841 24.2199 24.3711 24.1069 24.3711 23.9673V23.5324C24.3711 23.153 24.6796 22.8445 25.0586 22.8445H26.3193C26.6987 22.8445 27.0072 23.153 27.0072 23.5324V23.9673C27.0072 24.1069 26.8938 24.2199 26.7541 24.2199ZM24.8768 23.7142H26.5015V23.5324C26.5015 23.4319 26.4198 23.3502 26.3193 23.3502H25.0586C24.9585 23.3502 24.8768 23.4319 24.8768 23.5324V23.7142Z" fill="#E07525"/>
</svg>
