<svg width="36" height="35" viewBox="0 0 36 35" fill="none" xmlns="http://www.w3.org/2000/svg">
<circle cx="17.697" cy="17.5" r="17.5" fill="#E07525" fill-opacity="0.1"/>
<path d="M25.3081 10H9.75258C8.9048 10.0311 8.22813 10.7078 8.19702 11.5556V22.4444C8.22813 23.2922 8.9048 23.9689 9.75258 24H25.3081C26.1559 23.9689 26.8326 23.2922 26.8637 22.4444V11.5556C26.8494 11.1476 26.6809 10.7602 26.3922 10.4715C26.1035 10.1828 25.7161 10.0143 25.3081 10ZM25.3081 22.4444H9.75258V11.5556H25.3081V22.4444ZM19.0859 20.8889V19.9167C19.0859 18.6256 16.4881 17.9722 15.197 17.9722C13.9059 17.9722 11.3081 18.6256 11.3081 19.9167V20.8889H19.0859ZM15.197 13.1111C14.6813 13.1111 14.1867 13.316 13.8221 13.6806C13.4574 14.0453 13.2526 14.5399 13.2526 15.0556C13.2526 15.3109 13.3029 15.5638 13.4006 15.7997C13.4983 16.0356 13.6415 16.2499 13.8221 16.4305C14.1867 16.7951 14.6813 17 15.197 17C15.4524 17 15.7052 16.9497 15.9411 16.852C16.177 16.7543 16.3914 16.611 16.572 16.4305C16.7525 16.2499 16.8957 16.0356 16.9935 15.7997C17.0912 15.5638 17.1415 15.3109 17.1415 15.0556C17.1415 14.8002 17.0912 14.5474 16.9935 14.3114C16.8957 14.0755 16.7525 13.8612 16.572 13.6806C16.3914 13.5001 16.177 13.3568 15.9411 13.2591C15.7052 13.1614 15.4524 13.1111 15.197 13.1111ZM19.0859 13.1111V13.8889H23.7526V13.1111H19.0859ZM19.0859 14.6667V15.4444H23.7526V14.6667H19.0859ZM19.0859 16.2222V17H22.197V16.2222H19.0859Z" fill="#E07525"/>
</svg>
