<svg width="19" height="18" viewBox="0 0 19 18" fill="none" xmlns="http://www.w3.org/2000/svg">
<path d="M2.5 18C1.95 18 1.479 17.804 1.087 17.412C0.695002 17.02 0.499335 16.5493 0.500002 16V2C0.500002 1.45 0.696002 0.979002 1.088 0.587002C1.48 0.195002 1.95067 -0.000664969 2.5 1.69779e-06H8.5C8.78334 1.69779e-06 9.021 0.0960018 9.213 0.288002C9.405 0.480002 9.50067 0.717335 9.5 1C9.5 1.28333 9.404 1.521 9.212 1.713C9.02 1.905 8.78267 2.00067 8.5 2H2.5V16H8.5C8.78334 16 9.021 16.096 9.213 16.288C9.405 16.48 9.50067 16.7173 9.5 17C9.5 17.2833 9.404 17.521 9.212 17.713C9.02 17.905 8.78267 18.0007 8.5 18H2.5ZM14.675 10H7.5C7.21667 10 6.979 9.904 6.787 9.712C6.595 9.52 6.49934 9.28267 6.5 9C6.5 8.71667 6.596 8.479 6.788 8.287C6.98 8.095 7.21734 7.99934 7.5 8H14.675L12.8 6.125C12.6167 5.94167 12.525 5.71667 12.525 5.45C12.525 5.18333 12.6167 4.95 12.8 4.75C12.9833 4.55 13.2167 4.44567 13.5 4.437C13.7833 4.42834 14.025 4.52433 14.225 4.725L17.8 8.3C18 8.5 18.1 8.73334 18.1 9C18.1 9.26667 18 9.5 17.8 9.7L14.225 13.275C14.025 13.475 13.7873 13.571 13.512 13.563C13.2367 13.555 12.9993 13.4507 12.8 13.25C12.6167 13.05 12.529 12.8123 12.537 12.537C12.545 12.2617 12.641 12.0327 12.825 11.85L14.675 10Z" fill="white"/>
</svg>
