<svg width="44" height="44" viewBox="0 0 44 44" fill="none" xmlns="http://www.w3.org/2000/svg">
<circle cx="21.6869" cy="21.6866" r="21.4925" fill="#E07525" fill-opacity="0.1"/>
<g clip-path="url(#clip0_496_5222)">
<path fill-rule="evenodd" clip-rule="evenodd" d="M28.1875 18.906V30.5935H15.8125V12.7185H22V16.4998C22 17.828 23.078 18.906 24.4062 18.906H28.1875ZM28.0211 16.8435L24.0625 12.8849V16.4998C24.0625 16.6895 24.2165 16.8435 24.4062 16.8435H28.0211ZM13.75 12.031C13.75 11.6663 13.8949 11.3166 14.1527 11.0587C14.4106 10.8009 14.7603 10.656 15.125 10.656H24.1808C24.5454 10.6561 24.8951 10.801 25.1529 11.0589L29.8471 15.7531C30.105 16.0109 30.2499 16.3606 30.25 16.7253V31.281C30.25 31.6457 30.1051 31.9954 29.8473 32.2533C29.5894 32.5111 29.2397 32.656 28.875 32.656H15.125C14.7603 32.656 14.4106 32.5111 14.1527 32.2533C13.8949 31.9954 13.75 31.6457 13.75 31.281V12.031ZM18.9062 21.656C18.6327 21.656 18.3704 21.7647 18.177 21.9581C17.9836 22.1514 17.875 22.4138 17.875 22.6873C17.875 22.9608 17.9836 23.2231 18.177 23.4165C18.3704 23.6099 18.6327 23.7185 18.9062 23.7185H25.0938C25.3673 23.7185 25.6296 23.6099 25.823 23.4165C26.0163 23.2231 26.125 22.9608 26.125 22.6873C26.125 22.4138 26.0163 22.1514 25.823 21.9581C25.6296 21.7647 25.3673 21.656 25.0938 21.656H18.9062ZM17.875 26.1248C17.875 25.8513 17.9836 25.5889 18.177 25.3956C18.3704 25.2022 18.6327 25.0935 18.9062 25.0935H22.3438C22.6173 25.0935 22.8796 25.2022 23.073 25.3956C23.2663 25.5889 23.375 25.8513 23.375 26.1248C23.375 26.3983 23.2663 26.6606 23.073 26.854C22.8796 27.0474 22.6173 27.156 22.3438 27.156H18.9062C18.6327 27.156 18.3704 27.0474 18.177 26.854C17.9836 26.6606 17.875 26.3983 17.875 26.1248Z" fill="#E07525"/>
</g>
<defs>
<clipPath id="clip0_496_5222">
<rect width="22" height="22" fill="white" transform="translate(11 10.656)"/>
</clipPath>
</defs>
</svg>
