<svg width="36" height="35" viewBox="0 0 36 35" fill="none" xmlns="http://www.w3.org/2000/svg">
<circle cx="17.697" cy="17.5" r="17.5" fill="#E07525" fill-opacity="0.1"/>
<path d="M17.3184 11C13.4544 11 10.3254 14.136 10.3254 18C10.3254 21.864 13.4544 25 17.3184 25C21.1894 25 24.3254 21.864 24.3254 18C24.3254 14.136 21.1894 11 17.3184 11ZM17.3254 23.6C14.2314 23.6 11.7254 21.094 11.7254 18C11.7254 14.906 14.2314 12.4 17.3254 12.4C20.4194 12.4 22.9254 14.906 22.9254 18C22.9254 21.094 20.4194 23.6 17.3254 23.6ZM17.6754 14.5H16.6254V18.7L20.3004 20.905L20.8254 20.044L17.6754 18.175V14.5Z" fill="#E07525"/>
</svg>
